<?xml version="1.0" standalone="no"?>
<!DOCTYPE svg PUBLIC "-//W3C//DTD SVG 20010904//EN"
 "http://www.w3.org/TR/2001/REC-SVG-20010904/DTD/svg10.dtd">
<svg version="1.0" xmlns="http://www.w3.org/2000/svg"
 width="400.000000pt" height="400.000000pt" viewBox="0 0 400.000000 400.000000"
 preserveAspectRatio="xMidYMid meet">
<metadata>
Created by potrace 1.14, written by Peter Selinger 2001-2017
</metadata>
<g transform="translate(0.000000,400.000000) scale(0.100000,-0.100000)"
fill="#000000" stroke="none">
<path d="M0 2000 l0 -2000 2000 0 2000 0 0 2000 0 2000 -2000 0 -2000 0 0
-2000z m2522 1380 c216 -21 434 -94 598 -201 236 -154 350 -334 406 -642 26
-137 23 -415 -5 -572 -84 -475 -303 -857 -603 -1053 -74 -47 -213 -111 -223
-101 -2 3 21 27 52 53 258 216 464 624 529 1046 17 113 21 379 7 465 l-9 50
-7 -85 c-19 -234 -118 -469 -265 -630 -35 -39 -66 -69 -69 -66 -2 2 11 35 30
72 86 172 125 333 134 550 11 284 -52 512 -183 662 -44 50 -122 112 -142 112
-5 0 -12 -44 -16 -97 -6 -94 -27 -207 -40 -220 -3 -4 -6 16 -6 43 0 236 -180
404 -433 404 l-69 0 7 -42 c4 -24 17 -65 29 -93 l23 -50 88 -22 c48 -13 113
-35 144 -50 l56 -27 -45 -3 c-25 -2 -64 -6 -88 -9 l-43 -5 82 -87 c45 -48 105
-102 133 -120 28 -19 70 -49 93 -68 47 -39 119 -122 111 -129 -3 -3 -29 5 -59
19 -30 13 -64 27 -77 31 l-23 7 24 -49 c23 -45 87 -224 87 -243 0 -5 14 -33
31 -62 49 -82 112 -268 92 -268 -3 0 -22 18 -42 41 l-36 41 -3 -212 c-3 -224
-17 -338 -50 -411 -18 -39 -20 -41 -21 -17 -1 39 -17 42 -32 6 -21 -52 -102
-169 -160 -233 -30 -33 -68 -80 -83 -105 -39 -59 -106 -139 -128 -151 -17 -9
-16 -6 2 41 l20 50 -83 -44 c-45 -25 -134 -63 -197 -85 -63 -22 -146 -51 -185
-64 -38 -14 -86 -28 -105 -32 l-35 -6 28 25 28 26 -113 0 c-62 0 -151 7 -198
15 -47 8 -103 15 -125 15 -50 0 -159 23 -205 43 l-35 15 33 7 34 8 -69 36
c-75 40 -190 119 -214 147 -7 9 -43 31 -79 47 -57 27 -62 31 -38 35 l26 3 -49
66 c-27 36 -49 70 -49 75 0 5 -28 37 -62 70 -55 52 -59 59 -35 54 15 -4 27 -4
27 -1 0 17 -56 170 -80 219 -30 60 -32 79 -7 57 12 -9 15 15 19 152 6 183 21
247 31 126 14 -177 79 -377 167 -511 171 -260 506 -411 875 -395 266 13 451
84 601 232 120 119 180 240 210 425 39 237 -10 476 -136 668 -221 335 -660
480 -1052 347 -130 -44 -277 -155 -263 -200 4 -11 9 -43 12 -70 l5 -50 -51
-43 c-59 -50 -83 -91 -106 -183 -25 -101 -30 -109 -67 -109 -47 0 -63 12 -49
38 8 15 7 23 -4 32 -23 19 -18 27 20 34 29 6 35 11 35 31 0 16 -6 25 -15 25
-19 0 -19 9 1 31 8 9 14 28 12 41 l-4 23 -11 -26 c-6 -14 -30 -47 -52 -73 -43
-50 -49 -76 -26 -116 8 -14 14 -33 15 -44 0 -15 -3 -16 -15 -6 -12 10 -15 10
-15 -4 0 -30 -17 -16 -28 23 -24 79 -15 117 44 183 31 35 53 83 42 94 -3 2
-24 -9 -46 -26 -31 -22 -42 -37 -42 -56 0 -21 -4 -25 -20 -21 -13 3 -24 -3
-34 -18 -13 -20 -13 -24 7 -44 l21 -21 -39 0 c-22 0 -49 -7 -59 -15 -40 -31
-126 -8 -126 33 0 10 49 67 110 127 106 106 110 111 110 153 0 56 19 100 75
171 36 46 45 65 45 98 0 60 35 184 74 263 35 72 143 230 157 230 4 0 -8 -33
-26 -73 -43 -94 -83 -229 -91 -314 l-7 -66 49 48 c27 26 81 72 119 101 39 30
100 81 137 113 66 56 184 128 195 118 3 -3 -7 -21 -21 -40 -14 -19 -26 -36
-26 -39 0 -3 33 3 73 13 39 11 106 24 147 29 41 5 108 18 149 29 84 24 215 37
256 27 27 -7 25 -8 -31 -35 l-59 -27 62 -13 c53 -10 156 -42 215 -66 17 -7 17
-5 2 31 -21 51 -91 155 -149 223 -56 65 -57 63 86 80 52 6 108 13 124 15 66 7
236 5 337 -4z"/>
<path d="M742 2580 c-36 -22 -55 -59 -50 -102 l3 -27 48 44 c36 34 47 52 47
75 0 35 -4 36 -48 10z"/>
</g>
</svg>
